<svg xmlns="http://www.w3.org/2000/svg" xmlns:xlink="http://www.w3.org/1999/xlink" width="353.32" height="74.227" viewBox="0 0 353.32 74.227">
  <defs>
    <linearGradient id="linear-gradient" x1="0.127" y1="1.266" x2="0.886" y2="-0.45" gradientUnits="objectBoundingBox">
      <stop offset="0" stop-color="#2e3191"/>
      <stop offset="0.33" stop-color="#6a2c90"/>
      <stop offset="0.66" stop-color="#6e4198"/>
      <stop offset="1" stop-color="#7156a3"/>
    </linearGradient>
    <linearGradient id="linear-gradient-2" x1="-0.07" y1="1.091" x2="0.888" y2="-0.042" gradientUnits="objectBoundingBox">
      <stop offset="0" stop-color="#2e3092"/>
      <stop offset="0.089" stop-color="#3c3795"/>
      <stop offset="0.283" stop-color="#53449b"/>
      <stop offset="0.489" stop-color="#644ea0"/>
      <stop offset="0.716" stop-color="#6e53a2"/>
      <stop offset="1" stop-color="#7155a3"/>
    </linearGradient>
    <linearGradient id="linear-gradient-3" x1="-0.067" y1="0.638" x2="0.902" y2="0.401" xlink:href="#linear-gradient-2"/>
  </defs>
  <g id="Group_10712" data-name="Group 10712" transform="translate(21124 2606)">
    <path id="Path_331" data-name="Path 331" d="M600.288,548.649h4.131v2H597.8V538.121h2.532v10.528Zm14.3-5.775a5.389,5.389,0,0,1,.622,2.576,6.651,6.651,0,0,1-.089.977h-7.241a2.4,2.4,0,0,0,.755,1.688,2.358,2.358,0,0,0,1.644.622,2.067,2.067,0,0,0,2-1.2h2.71a4.41,4.41,0,0,1-1.644,2.354,4.759,4.759,0,0,1-2.976.933,5.39,5.39,0,0,1-2.576-.622,4.672,4.672,0,0,1-1.777-1.821,5.313,5.313,0,0,1-.622-2.71,5.939,5.939,0,0,1,.622-2.71,4.282,4.282,0,0,1,1.777-1.777,5.442,5.442,0,0,1,2.621-.622,5.34,5.34,0,0,1,2.532.622A4.022,4.022,0,0,1,614.591,542.874Zm-1.954,1.866a1.988,1.988,0,0,0-.711-1.555,2.439,2.439,0,0,0-1.688-.577,2.111,2.111,0,0,0-1.555.577,2.5,2.5,0,0,0-.8,1.555Zm7.329-6.485h-2.532V540.7h-1.2v2.043h1.2v4.8c0,2.043,1.066,3.065,3.154,3.065h1.6v-2.132h-1.155a1.144,1.144,0,0,1-.8-.222.862.862,0,0,1-.222-.711v-4.8h2.221V540.7H620.01v-2.443Zm3.687,1.866h1.688l.222-3.82h-2.132Zm9.817,5.2c-.444-.178-1.066-.355-1.777-.577a6.76,6.76,0,0,1-1.555-.533.794.794,0,0,1-.489-.755.863.863,0,0,1,.355-.711,2.149,2.149,0,0,1,2.221.089,1.22,1.22,0,0,1,.489.933h2.4a3.275,3.275,0,0,0-1.155-2.4,4.352,4.352,0,0,0-2.843-.888,5,5,0,0,0-2.088.4,3.38,3.38,0,0,0-1.377,1.066,2.66,2.66,0,0,0-.489,1.51,2.319,2.319,0,0,0,.533,1.6,3.831,3.831,0,0,0,1.2.888c.489.178,1.066.355,1.821.577a6.763,6.763,0,0,1,1.555.533.808.808,0,0,1,.489.711.929.929,0,0,1-.4.755,1.953,1.953,0,0,1-1.111.267,2.273,2.273,0,0,1-1.244-.355,1.261,1.261,0,0,1-.577-.933H626.9a3.029,3.029,0,0,0,.622,1.688,3.939,3.939,0,0,0,1.555,1.2,5.025,5.025,0,0,0,2.177.444,5.148,5.148,0,0,0,2.088-.4,3.38,3.38,0,0,0,1.377-1.066,2.692,2.692,0,0,0,.489-1.555,2.318,2.318,0,0,0-.533-1.6A3.033,3.033,0,0,0,633.47,545.317Zm8.085,5.33h7.241V548.6h-4.753v-3.332h4.22v-2h-4.22v-3.109h4.753v-2.043h-7.241Zm17.813-9.95h-2.71l-1.821,3.065-2.043-3.065H649.95l3.287,4.931-3.243,4.975h2.71l1.821-3.065,2.043,3.065h2.843l-3.287-4.975Zm11.105,2.266a5.622,5.622,0,0,1,.622,2.665,5.94,5.94,0,0,1-.622,2.71,4.365,4.365,0,0,1-1.644,1.821,4.135,4.135,0,0,1-2.31.666,3.8,3.8,0,0,1-1.91-.444,3.716,3.716,0,0,1-1.333-1.111v6.13h-2.532V540.742h2.532v1.421a3.808,3.808,0,0,1,1.333-1.155,3.967,3.967,0,0,1,1.955-.444,4.612,4.612,0,0,1,2.31.622A4.449,4.449,0,0,1,670.472,542.963Zm-1.955,2.665a3.485,3.485,0,0,0-.355-1.555,2.577,2.577,0,0,0-.977-.977,2.512,2.512,0,0,0-2.576,0,2.71,2.71,0,0,0-.977,1.022,2.979,2.979,0,0,0-.355,1.555,3.484,3.484,0,0,0,.355,1.555,2.711,2.711,0,0,0,.977,1.022,2.513,2.513,0,0,0,2.576,0,2.711,2.711,0,0,0,.977-1.022A3.539,3.539,0,0,0,668.517,545.628Zm13.015-2.754a5.389,5.389,0,0,1,.622,2.576,6.651,6.651,0,0,1-.089.977h-7.24a2.4,2.4,0,0,0,.755,1.688,2.358,2.358,0,0,0,1.644.622,2.067,2.067,0,0,0,2-1.2h2.71a4.411,4.411,0,0,1-1.644,2.354,4.759,4.759,0,0,1-2.976.933,5.389,5.389,0,0,1-2.576-.622,4.673,4.673,0,0,1-1.777-1.821,5.313,5.313,0,0,1-.622-2.71,5.94,5.94,0,0,1,.622-2.71,4.283,4.283,0,0,1,1.777-1.777,5.441,5.441,0,0,1,2.621-.622,5.34,5.34,0,0,1,2.532.622A4.022,4.022,0,0,1,681.533,542.874Zm-2,1.866a1.988,1.988,0,0,0-.711-1.555,2.439,2.439,0,0,0-1.688-.577,2.111,2.111,0,0,0-1.555.577,2.5,2.5,0,0,0-.8,1.555Zm6.974-2.488V540.7h-2.532v9.95h2.532v-4.931a2.638,2.638,0,0,1,.622-1.954,2.58,2.58,0,0,1,1.777-.577h.666v-2.621a3.409,3.409,0,0,0-1.777.444A3.163,3.163,0,0,0,686.508,542.252Zm6-5.686a1.624,1.624,0,0,0-1.111.4,1.317,1.317,0,0,0-.444,1.066,1.444,1.444,0,0,0,.444,1.066,1.742,1.742,0,0,0,2.221,0,1.317,1.317,0,0,0,.444-1.066,1.444,1.444,0,0,0-.444-1.066A1.873,1.873,0,0,0,692.5,536.567Zm-1.288,14.081h2.532V540.7h-2.532Zm17.324-10.083a3.964,3.964,0,0,0-2,.533,3.848,3.848,0,0,0-1.422,1.377,3.644,3.644,0,0,0-1.421-1.421,4.523,4.523,0,0,0-2.088-.489,4.251,4.251,0,0,0-1.688.355,3.388,3.388,0,0,0-1.244.977v-1.2h-2.532v9.95h2.532V545.14a2.466,2.466,0,0,1,.622-1.777,2.21,2.21,0,0,1,1.644-.622,2.176,2.176,0,0,1,1.6.622,2.45,2.45,0,0,1,.577,1.777v5.508h2.532V545.14a2.466,2.466,0,0,1,.622-1.777,2.21,2.21,0,0,1,1.644-.622,2.176,2.176,0,0,1,1.6.622,2.45,2.45,0,0,1,.577,1.777v5.508h2.532v-5.819a4.1,4.1,0,0,0-1.11-3.109A3.916,3.916,0,0,0,708.54,540.564Zm15.059,2.31a5.389,5.389,0,0,1,.622,2.576,6.651,6.651,0,0,1-.089.977h-7.24a2.4,2.4,0,0,0,.755,1.688,2.358,2.358,0,0,0,1.644.622,2.067,2.067,0,0,0,2-1.2H724a4.411,4.411,0,0,1-1.644,2.354,4.759,4.759,0,0,1-2.976.933,5.389,5.389,0,0,1-2.576-.622,4.673,4.673,0,0,1-1.777-1.821,5.313,5.313,0,0,1-.622-2.71,5.94,5.94,0,0,1,.622-2.71,4.282,4.282,0,0,1,1.777-1.777,5.441,5.441,0,0,1,2.621-.622,5.34,5.34,0,0,1,2.532.622A4.022,4.022,0,0,1,723.6,542.874Zm-1.955,1.866a1.988,1.988,0,0,0-.711-1.555,2.439,2.439,0,0,0-1.688-.577,2.111,2.111,0,0,0-1.555.577,2.5,2.5,0,0,0-.8,1.555Zm9.906-4.176a4.47,4.47,0,0,0-1.732.355,3.657,3.657,0,0,0-1.288,1.022V540.7H726v9.95h2.532V545.14a2.581,2.581,0,0,1,.622-1.821,2.051,2.051,0,0,1,1.644-.622,2.176,2.176,0,0,1,1.6.622,2.566,2.566,0,0,1,.577,1.821v5.508H735.5v-5.819a4.1,4.1,0,0,0-1.111-3.109A3.563,3.563,0,0,0,731.55,540.564Zm11.5,2.221v-2.043h-2.221V538.3H738.3v2.443h-1.2v2.043h1.2v4.8c0,2.043,1.066,3.065,3.154,3.065h1.6v-2.132H741.9a1.144,1.144,0,0,1-.8-.222.861.861,0,0,1-.222-.711v-4.8h2.177Z" transform="translate(-21514.313 -3089.084)" fill="url(#linear-gradient)"/>
    <path id="Path_332" data-name="Path 332" d="M334.638,463.31l10.35-26.7,10.35,26.7h11.15L349.7,419.955h-9.506L323.4,463.31Zm43.71.089v-.533c0-3.065,0-6.086-.044-9.062-.044-3.021,0-6.041.044-9.062V444.7l.044-.044c0-.089,0-.133.044-.133a.044.044,0,0,0,.044-.044l.133-.267c0-.044,0-.044.044-.044a.043.043,0,0,0,.044-.044,13.727,13.727,0,0,1,2.932-4.309,6.575,6.575,0,0,1,4.709-1.821,4.088,4.088,0,0,1,2.887,1.022,5.432,5.432,0,0,1,1.6,2.8,13.915,13.915,0,0,1,.489,3.509v18.168h9.95v-4.709l.044-8.218v-4.309l-.044-.444v-.178a1.646,1.646,0,0,1,0-.666,3.439,3.439,0,0,1,.355-.844c.178-.4.311-.666.4-.844a13.151,13.151,0,0,1,2.887-3.731,6.35,6.35,0,0,1,4.4-1.555,4.088,4.088,0,0,1,2.887,1.022,5.432,5.432,0,0,1,1.6,2.8,13.913,13.913,0,0,1,.489,3.509v18.168h9.95v-16.48a32.631,32.631,0,0,0-.577-6.4,15.145,15.145,0,0,0-2.088-5.286,10.726,10.726,0,0,0-4.087-3.6,14.181,14.181,0,0,0-6.574-1.333,16.175,16.175,0,0,0-12.216,4.931,11.368,11.368,0,0,0-3.865-3.465,13.671,13.671,0,0,0-6.885-1.466,17.217,17.217,0,0,0-6.308,1.066,17.992,17.992,0,0,0-4.664,2.621l-1.155-2.887H368.4v32.249h9.95Zm85.776-23.232a15.33,15.33,0,0,0-3.687-5.286,16.13,16.13,0,0,0-5.6-3.376,20.4,20.4,0,0,0-7.107-1.2,18.622,18.622,0,0,0-6.308.977,20.8,20.8,0,0,0-4.886,2.354l-.8-2.532h-7.418v43.354h9.995V461.888a19.24,19.24,0,0,0,4.309,1.644,20.37,20.37,0,0,0,5.108.622,19.747,19.747,0,0,0,7.2-1.244,16.32,16.32,0,0,0,5.6-3.465,15.062,15.062,0,0,0,3.6-5.375,18.633,18.633,0,0,0,1.288-7.018A16.69,16.69,0,0,0,464.124,440.167Zm-9.151,10.616a9.046,9.046,0,0,1-1.421,3.021,6.452,6.452,0,0,1-2.532,2.043,8.94,8.94,0,0,1-3.776.755,8.8,8.8,0,0,1-3.776-.755,6.836,6.836,0,0,1-2.576-2,8.4,8.4,0,0,1-1.51-3.021,13.408,13.408,0,0,1-.133-6.663,7.98,7.98,0,0,1,1.333-3.021,6.586,6.586,0,0,1,2.488-2.31,9.01,9.01,0,0,1,4.22-.888,8.464,8.464,0,0,1,3.642.711,7.963,7.963,0,0,1,2.576,1.91,7.792,7.792,0,0,1,1.51,2.887,13.376,13.376,0,0,1,.489,3.642A16.4,16.4,0,0,1,454.973,450.783ZM468.833,463.4h9.995V420h-9.995ZM490.6,429.372a5.9,5.9,0,0,0,1.821-1.111,4.639,4.639,0,0,0,1.244-1.688,5.107,5.107,0,0,0-.044-4.264,6.64,6.64,0,0,0-1.244-1.688,4.873,4.873,0,0,0-1.777-1.066,5.664,5.664,0,0,0-2.132-.355,6.707,6.707,0,0,0-2.132.355,5.914,5.914,0,0,0-1.777,1.066,5.209,5.209,0,0,0-1.244,1.688,5.107,5.107,0,0,0-.044,4.264,5.731,5.731,0,0,0,1.244,1.688,5.9,5.9,0,0,0,1.821,1.111,5.687,5.687,0,0,0,2.132.4A5.857,5.857,0,0,0,490.6,429.372ZM483.447,463.4h9.995V431.1h-9.995Zm25.808-12.615h21.633l.044-.489c.044-.444.089-.933.089-1.377,0-.489.044-.977.044-1.466a20.35,20.35,0,0,0-1.111-6.885,15.851,15.851,0,0,0-3.2-5.464,14.7,14.7,0,0,0-5.2-3.6,18.609,18.609,0,0,0-7.107-1.288,20.34,20.34,0,0,0-7.063,1.244,16.517,16.517,0,0,0-5.6,3.554,15.865,15.865,0,0,0-3.687,5.419,17.522,17.522,0,0,0-1.333,6.93,16.717,16.717,0,0,0,1.421,6.974,15.2,15.2,0,0,0,3.865,5.242,18.057,18.057,0,0,0,5.775,3.331,21,21,0,0,0,7.152,1.155h.933v-7.6h-.933a7.4,7.4,0,0,1-6.174-2.621,10.154,10.154,0,0,1-2.043-6.53,15.951,15.951,0,0,1,.4-3.6,8.692,8.692,0,0,1,1.333-3.065,6.937,6.937,0,0,1,2.4-2.132,7.429,7.429,0,0,1,3.6-.8,5.731,5.731,0,0,1,4.531,1.732,9.793,9.793,0,0,1,2.088,4.486h-11.86ZM532,437.9h5.108v14.17a15.4,15.4,0,0,0,.666,4.575,8.863,8.863,0,0,0,2.4,3.865,12.419,12.419,0,0,0,4.886,2.665,27.433,27.433,0,0,0,8.129.977h.933v-7.6h-1.377a17.323,17.323,0,0,1-2.976-.222,3.48,3.48,0,0,1-1.732-.755,2.25,2.25,0,0,1-.755-1.333,8.378,8.378,0,0,1-.178-1.954V437.857h7.018V431.1H547.1V420h-9.995V431.1H532Zm59.124,9.017v.489a16.79,16.79,0,0,1-1.377,6.93,16.306,16.306,0,0,1-3.82,5.286,17.611,17.611,0,0,1-5.73,3.376,20.747,20.747,0,0,1-7.107,1.155A21.8,21.8,0,0,1,566.024,463a16.73,16.73,0,0,1-5.73-3.376,15.254,15.254,0,0,1-3.82-5.286,16.5,16.5,0,0,1-1.377-6.93,17.078,17.078,0,0,1,1.466-7.2,16.239,16.239,0,0,1,4-5.419,17.653,17.653,0,0,1,6-3.376,22.388,22.388,0,0,1,7.418-1.155h.933v7.6h-.933c-3.065,0-5.286.888-6.708,2.621a10.6,10.6,0,0,0-2.177,6.93,12.566,12.566,0,0,0,.4,3.021,8.638,8.638,0,0,0,1.377,2.976,8.111,8.111,0,0,0,2.71,2.265,11.328,11.328,0,0,0,8.8,0,7.2,7.2,0,0,0,2.71-2.265,8.276,8.276,0,0,0,1.377-2.976,12.4,12.4,0,0,0,.355-3.021v-.489ZM578.329,432.97h9.995v9.2h-9.995Zm-226.9,30.339-6.4-16.48-6.4,16.48Z" transform="translate(-21361.801 -3024.001)" fill="url(#linear-gradient-2)"/>
    <g id="Group_10710" data-name="Group 10710" transform="translate(-21124 -2606)">
      <path id="Path_333" data-name="Path 333" d="M176.453,417.477a37.16,37.16,0,0,1,28.473,34.959L159,466.384,174.987,438.8l6.707,11.86-12.66,6.707,25.986-7.64Zm-2.488-.489a34.953,34.953,0,0,0-6.13-.489,37.115,37.115,0,0,0-28.7,60.678ZM143.671,481.8a37.112,37.112,0,0,0,61.256-27.852Z" transform="translate(-130.7 -416.5)" fill="url(#linear-gradient-3)"/>
      <g id="Group_10709" data-name="Group 10709" transform="translate(12.971 22.343)" opacity="0.3">
        <path id="Path_334" data-name="Path 334" d="M159.9,528.652,221.156,500.8l-54.593,32.427A69.119,69.119,0,0,1,159.9,528.652Z" transform="translate(-159.9 -485.697)"/>
        <path id="Path_335" data-name="Path 335" d="M194.3,494.385l.133-.178L210.291,466.8l-10.172,25.808" transform="translate(-179.019 -466.8)"/>
      </g>
    </g>
  </g>
</svg>
